Coordinates
version=1
nRows=4
nColumns=63
inDegrees=yes

Units are S.I. units (second, meters, Newtons, ...)
If the header above contains a line with 'inDegrees', this indicates whether rotational values are in degrees (yes) or radians (no).

endheader
time	pelvis_tilt	pelvis_list	pelvis_rotation	pelvis_tx	pelvis_ty	pelvis_tz	hip_flexion_r	hip_adduction_r	hip_rotation_r	knee_angle_r	knee_angle_r_beta	ankle_angle_r	subtalar_angle_r	mtp_angle_r	hip_flexion_l	hip_adduction_l	hip_rotation_l	knee_angle_l	knee_angle_l_beta	ankle_angle_l	subtalar_angle_l	mtp_angle_l	L5_S1_Flex_Ext	L5_S1_Lat_Bending	L5_S1_axial_rotation	L4_L5_Flex_Ext	L4_L5_Lat_Bending	L4_L5_axial_rotation	L3_L4_Flex_Ext	L3_L4_Lat_Bending	L3_L4_axial_rotation	L2_L3_Flex_Ext	L2_L3_Lat_Bending	L2_L3_axial_rotation	L1_L2_Flex_Ext	L1_L2_Lat_Bending	L1_L2_axial_rotation	L1_T12_Flex_Ext	L1_T12_Lat_Bending	L1_T12_axial_rotation	Abs_r3	Abs_r2	Abs_r1	Abs_t1	Abs_t2	neck_flexion	neck_bending	neck_rotation	arm_flex_r	arm_add_r	arm_rot_r	elbow_flex_r	pro_sup_r	wrist_flex_r	wrist_dev_r	arm_flex_l	arm_add_l	arm_rot_l	elbow_flex_l	pro_sup_l	wrist_flex_l	wrist_dev_l
      0.86666667	     -3.81845773	      0.01580423	     -1.13106222	      0.09606361	      0.97490288	      0.35450139	      3.98466500	     -5.63866461	    -22.52263592	      3.56109255	      0.06215279	      1.19239560	      5.48545924	      0.00000000	      3.79344848	     -4.63734181	    -13.31166485	      2.85690594	      0.04986241	      4.14905685	      5.15969256	      0.00000000	      0.01523504	     -0.14100586	      0.25570900	      0.02829300	     -0.18753780	      0.27169081	      0.02502965	     -0.34284166	      0.27169081	      0.01741213	     -0.34284166	      0.22374538	      0.01414726	     -0.28753916	      0.20776356	      0.00870530	     -0.21841808	      0.19178175	      0.10882239	     -1.59508654	      1.42217675	      0.00000000	      0.00000000	      0.00000000	      0.00000000	      0.00000000	      4.19618061	    -31.79937256	    -41.28898136	     19.00693157	     56.22106677	      0.00000000	      4.99975015	     -6.26674385	    -30.92470401	    -28.37785709	     30.83045531	     61.18428596	      0.00000000	      4.99975015
      0.90000000	     -3.79327897	     -0.01167040	     -1.09451859	      0.09650826	      0.97470350	      0.35407979	      3.90891803	     -5.63843855	    -22.28843821	      3.51120517	      0.06128209	      1.25669090	      5.18059139	      0.00000000	      3.73708833	     -4.57516809	    -13.13177271	      2.80056908	      0.04887915	      4.21431934	      4.83042523	      0.00000000	      0.01509247	     -0.13354495	      0.23460486	      0.02802823	     -0.17761478	      0.24926766	      0.02479542	     -0.32470119	      0.24926766	      0.01724918	     -0.32470119	      0.20527925	      0.01401487	     -0.27232486	      0.19061645	      0.00862384	     -0.20686112	      0.17595364	      0.10780401	     -1.51068716	      1.30480184	      0.00000000	      0.00000000	      0.00000000	      0.00000000	      0.00000000	      4.22674798	    -31.76447095	    -41.46157157	     19.19307814	     55.81958481	      0.00000000	      4.99976285	     -6.57708869	    -30.84431887	    -28.47300766	     31.14285346	     60.67681146	      0.00000000	      4.99976285
      0.93333333	     -3.76714782	     -0.06115903	     -1.01184190	      0.09660102	      0.97467457	      0.35355486	      3.86110296	     -5.62654999	    -22.33045445	      3.46092469	      0.06040453	      1.13176708	      5.32595756	      0.00000000	      3.72963121	     -4.54507594	    -13.09874868	      2.78642782	      0.04863234	      4.15331779	      4.73395136	      0.00000000	      0.01589912	     -0.12150474	      0.19697347	      0.02952626	     -0.16160130	      0.20928432	      0.02612067	     -0.29542662	      0.20928432	      0.01817111	     -0.29542662	      0.17235179	      0.01476393	     -0.24777246	      0.16004095	      0.00908476	     -0.18821084	      0.14773011	      0.11356586	     -1.37448591	      1.09550737	      0.00000000	      0.00000000	      0.00000000	      0.00000000	      0.00000000	      4.81918499	    -31.82457338	    -42.06525567	     18.31267246	     55.52880030	      0.00000000	      4.99977845	     -6.37180384	    -30.74387669	    -28.82001850	     30.19114868	     60.37075183	      0.00000000	      4.99977845
      0.96666667	     -3.75504364	     -0.07131607	     -0.99590991	      0.09676365	      0.97451759	      0.35301800	      3.83873577	     -5.62897239	    -22.57159096	      3.40964664	      0.05950956	      1.10570165	      5.58299737	      0.00000000	      3.71896480	     -4.47555013	    -13.20986459	      2.80220124	      0.04890764	      4.24418241	      4.73305820	      0.00000000	      0.01526068	     -0.11237243	      0.18583083	      0.02834061	     -0.14945533	      0.19744526	      0.02507177	     -0.27322233	      0.19744526	      0.01744143	     -0.27322233	      0.16260198	      0.01417107	     -0.22914986	      0.15098755	      0.00871995	     -0.17406490	      0.13937313	      0.10900550	     -1.27117941	      1.03353535	      0.00000000	      0.00000000	      0.00000000	      0.00000000	      0.00000000	      4.80231317	    -31.81663279	    -42.42781462	     18.67439474	     55.41788499	      0.00000000	      4.99978959	     -6.27147562	    -30.62118154	    -29.05724611	     29.69069661	     60.25663818	      0.00000000	      4.99978959
